<svg width="1440" height="238" viewBox="0 0 1440 238" fill="none" xmlns="http://www.w3.org/2000/svg">
<path d="M239.006 234.134H195.809V140.764C195.809 127.406 193.464 117.671 188.704 111.56C183.944 105.449 177.407 102.322 169.024 102.322C163.198 102.322 157.372 103.815 151.475 106.728C145.578 109.641 140.249 113.692 135.56 118.808C130.8 123.924 127.39 129.893 125.258 136.572V234.062H82.0608V66.8649H121.066V98.059C125.329 90.8112 130.8 84.7002 137.478 79.7262C144.157 74.7522 151.83 70.9151 160.498 68.286C169.166 65.6569 178.402 64.3068 188.065 64.3068C198.58 64.3068 207.248 66.1543 213.997 69.8493C220.747 73.5443 225.933 78.5893 229.486 84.8424C233.038 91.0954 235.525 98.2011 236.875 106.017C238.296 113.905 238.935 121.863 238.935 129.893V234.062L239.006 234.134Z" fill="#C1F11D"/>
<path d="M285.685 0L347.568 181.267L408.74 0H455.419L368.74 234.133H325.898L239.006 0H285.685Z" fill="#C1F11D"/>
<path d="M475.739 42.8475V0H518.936V42.8475H475.739ZM475.739 234.133V67.0069H518.936V234.133H475.739Z" fill="#C1F11D"/>
<path d="M620.038 237.331C605.615 237.331 591.903 234.986 578.83 230.225C565.757 225.536 554.46 218.501 545.011 209.263L560.499 181.267C570.588 189.438 580.535 195.407 590.268 199.315C600.073 203.153 609.451 205.142 618.475 205.142C626.858 205.142 633.537 203.721 638.581 200.808C643.626 197.894 646.183 193.56 646.183 187.733C646.183 183.683 644.762 180.556 641.992 178.354C639.221 176.151 635.171 174.161 629.913 172.456C624.656 170.75 618.261 168.832 610.73 166.7C598.297 162.65 587.853 158.742 579.469 154.905C571.085 151.068 564.833 146.236 560.641 140.409C556.45 134.582 554.389 127.121 554.389 117.955C554.389 106.941 557.231 97.4194 562.915 89.461C568.599 81.5026 576.556 75.3206 586.787 70.844C597.018 66.3674 608.954 64.1646 622.738 64.1646C634.745 64.1646 646.112 66.0121 656.912 69.7781C667.64 73.5442 677.445 79.584 686.255 87.9688L668.848 115.326C660.251 108.646 652.08 103.815 644.336 100.688C636.592 97.5615 628.777 95.9982 620.819 95.9982C616.343 95.9982 612.08 96.4956 608.102 97.5615C604.123 98.6274 600.926 100.333 598.439 102.82C595.952 105.236 594.744 108.717 594.744 113.123C594.744 117.173 595.881 120.229 598.155 122.503C600.428 124.705 603.839 126.695 608.457 128.4C613.075 130.106 618.688 132.024 625.366 134.085C638.865 137.922 650.304 141.83 659.683 145.809C668.99 149.86 676.024 154.763 680.784 160.518C685.473 166.345 687.889 174.303 687.889 184.464C687.889 200.95 681.779 213.882 669.558 223.12C657.338 232.428 640.855 237.047 620.251 237.047L620.038 237.331Z" fill="#C1F11D"/>
<path d="M877.09 237.331C863.378 237.331 851.015 235.057 840.074 230.51C829.132 225.962 819.825 219.638 812.223 211.537C804.621 203.437 798.724 194.199 794.674 183.825C790.624 173.38 788.564 162.508 788.564 150.997C788.564 139.485 790.624 128.258 794.674 117.884C798.724 107.438 804.621 98.2721 812.223 90.1716C819.825 82.071 829.132 75.818 840.074 71.1993C851.015 66.6516 863.378 64.3778 877.09 64.3778C890.802 64.3778 903.094 66.6516 913.964 71.1993C924.834 75.747 934.071 82.071 941.815 90.1716C949.559 98.2721 955.385 107.51 959.364 117.884C963.343 128.258 965.332 139.343 965.332 150.997C965.332 162.65 963.343 173.38 959.364 183.825C955.385 194.199 949.559 203.437 941.957 211.537C934.355 219.638 925.048 225.962 914.106 230.51C903.165 235.057 890.802 237.331 877.09 237.331ZM832.969 150.997C832.969 160.66 834.887 169.258 838.795 176.719C842.632 184.18 847.889 190.078 854.568 194.27C861.246 198.463 868.706 200.594 877.09 200.594C885.474 200.594 892.65 198.463 899.328 194.128C906.007 189.794 911.264 183.896 915.243 176.435C919.222 168.974 921.211 160.376 921.211 150.641C921.211 140.906 919.222 132.593 915.243 125.061C911.264 117.458 905.936 111.56 899.328 107.367C892.65 103.175 885.261 101.043 877.09 101.043C868.919 101.043 861.175 103.175 854.568 107.51C847.889 111.844 842.632 117.742 838.795 125.203C834.958 132.664 832.969 141.262 832.969 150.925V150.997Z" fill="#C1F11D"/>
<path d="M1151.26 234.134H1108.07V140.764C1108.07 127.406 1105.72 117.671 1100.96 111.56C1096.2 105.449 1089.67 102.322 1081.28 102.322C1075.46 102.322 1069.63 103.815 1063.73 106.728C1057.84 109.641 1052.51 113.692 1047.82 118.808C1043.06 123.924 1039.65 129.893 1037.52 136.572V234.062H994.319V66.8649H1033.32V98.059C1037.59 90.8112 1043.13 84.7002 1049.74 79.7262C1056.42 74.7522 1064.09 70.9151 1072.76 68.286C1081.42 65.6569 1090.66 64.3068 1100.32 64.3068C1110.84 64.3068 1119.51 66.1543 1126.26 69.8493C1133.01 73.5443 1138.19 78.5893 1141.74 84.8424C1145.3 91.0954 1147.78 98.2011 1149.13 106.017C1150.55 113.905 1151.19 121.863 1151.19 129.893V234.062L1151.26 234.134Z" fill="#C1F11D"/>
<path d="M1340.54 235.697C1322.28 235.697 1306.79 232.641 1294 226.53C1281.21 220.419 1270.91 211.964 1263.09 201.234C1255.28 190.504 1249.52 178.283 1245.83 164.64C1242.21 150.997 1240.36 136.785 1240.36 121.934V0H1284.84V122.005C1284.84 131.456 1285.76 140.622 1287.61 149.575C1289.45 158.458 1292.51 166.487 1296.77 173.593C1301.03 180.698 1306.79 186.241 1313.82 190.362C1320.93 194.413 1329.74 196.473 1340.25 196.473C1350.77 196.473 1359.93 194.413 1367.18 190.22C1374.36 186.028 1380.04 180.414 1384.23 173.309C1388.42 166.203 1391.48 158.244 1393.4 149.291C1395.32 140.409 1396.31 131.314 1396.31 122.076V0H1440.43V122.005C1440.43 137.709 1438.58 152.418 1434.82 166.132C1431.05 179.846 1425.16 191.925 1417.13 202.371C1409.1 212.816 1398.73 220.917 1386.01 226.886C1373.36 232.783 1358.23 235.768 1340.61 235.768L1340.54 235.697Z" fill="#C1F11D"/>
<path d="M0 42.8475V0H43.1973V42.8475H0ZM0 234.133V67.0069H43.1973V234.133H0Z" fill="#C1F11D"/>
<path d="M716.805 42.8475V0H760.002V42.8475H716.805ZM716.805 234.133V67.0069H760.002V234.133H716.805Z" fill="#C1F11D"/>
</svg>
