<svg width="1123" height="444" viewBox="0 0 1123 444" fill="none" xmlns="http://www.w3.org/2000/svg">
<path d="M171.695 437.178V345.432H0V257.381L203.08 0H270.157V257.381H324.312V345.432H270.157V437.178H171.695ZM97.8474 257.381H182.772V147.779L97.8474 257.381Z" fill="white"/>
<path d="M564.82 443.951C533.23 443.541 505.332 436.562 481.126 423.016C456.921 409.47 436.613 391.818 420.203 370.062C404.202 347.895 392.1 323.881 383.894 298.02C375.689 272.159 371.587 246.913 371.587 222.284C371.587 196.012 375.894 169.74 384.51 143.468C393.536 117.197 406.459 93.3878 423.28 72.042C440.1 50.2857 460.408 33.0449 484.203 20.3195C507.999 7.18367 534.871 0.615736 564.82 0.615736C597.23 0.615736 625.333 7.59416 649.129 21.551C673.334 35.5079 693.437 53.5697 709.437 75.7365C725.848 97.9033 738.155 121.917 746.361 147.779C754.566 173.64 758.669 198.475 758.669 222.284C758.669 248.966 754.156 275.443 745.13 301.714C736.514 327.986 723.796 351.795 706.976 373.141C690.155 394.487 669.847 411.727 646.052 424.863C622.256 437.589 595.179 443.951 564.82 443.951ZM473.742 222.284C474.152 237.882 475.998 253.481 479.28 269.08C482.973 284.268 488.511 298.431 495.896 311.566C503.281 324.292 512.717 334.554 524.204 342.354C535.691 350.153 549.23 354.053 564.82 354.053C581.641 354.053 595.795 349.948 607.282 341.738C618.769 333.117 628 322.239 634.975 309.103C642.359 295.557 647.693 281.19 650.975 266.001C654.667 250.813 656.513 236.24 656.513 222.284C656.513 206.685 654.667 191.291 650.975 176.103C647.282 160.504 641.539 146.342 633.744 133.616C626.359 120.481 616.923 110.013 605.436 102.213C593.948 94.4141 580.615 90.5144 565.435 90.5144C549.025 90.5144 534.871 94.8246 522.973 103.445C511.486 111.655 502.05 122.328 494.665 135.464C487.691 148.6 482.357 162.967 478.665 178.566C475.383 193.754 473.742 208.327 473.742 222.284Z" fill="white"/>
<path d="M970.383 437.178V345.432H798.688V257.381L1001.77 0H1068.85V257.381H1123V345.432H1068.85V437.178H970.383ZM896.536 257.381H981.46V147.779L896.536 257.381Z" fill="white"/>
<path d="M565.5 246C558.754 246 553 244.892 548.238 242.676C543.476 240.381 539.587 237.294 536.571 233.416C533.635 229.459 531.452 224.987 530.024 220.001C528.675 214.936 528 209.634 528 204.094V161H547.524V204.094C547.524 207.259 547.841 210.346 548.476 213.353C549.111 216.282 550.143 218.893 551.571 221.189C553 223.484 554.825 225.304 557.048 226.649C559.349 227.995 562.167 228.668 565.5 228.668C568.913 228.668 571.77 227.995 574.071 226.649C576.373 225.225 578.198 223.365 579.548 221.07C580.897 218.696 581.889 216.044 582.524 213.116C583.159 210.188 583.476 207.18 583.476 204.094V161H603V204.094C603 209.95 602.246 215.411 600.738 220.476C599.31 225.541 597.087 230.013 594.071 233.891C591.056 237.69 587.167 240.658 582.405 242.795C577.722 244.932 572.087 246 565.5 246Z" fill="white"/>
</svg>
